<svg xmlns="http://www.w3.org/2000/svg" viewBox="0 0 180 180"><defs><linearGradient id="bg" x1="0" y1="0" x2="1" y2="1"><stop offset="0" stop-color="#0B2D4F"/><stop offset="0.58" stop-color="#082844"/><stop offset="1" stop-color="#0284A7"/></linearGradient><linearGradient id="a" x1="0" y1="0" x2="1" y2="1"><stop offset="0" stop-color="#0B2D4F"/><stop offset="1" stop-color="#2DD4BF"/></linearGradient><linearGradient id="b" x1="0" y1="0" x2="1" y2="0"><stop offset="0" stop-color="#2DD4BF"/><stop offset="1" stop-color="#A7F3D0"/></linearGradient><linearGradient id="c" x1="0" y1="0" x2="1" y2="1"><stop offset="0" stop-color="#2DD4BF"/><stop offset="1" stop-color="#0284A7"/></linearGradient></defs><rect width="180" height="180" rx="42" fill="url(#bg)"/><path d="M43 47c0-12 10-21 22-21h78c-2 28-23 48-53 48H43V47Z" fill="url(#a)"/><path d="M43 72c22-13 43-14 66-4 16 7 31 13 49 15-6 27-27 40-53 32-21-7-37-22-62-18V72Z" fill="url(#b)"/><path d="M43 94c24-2 46 14 46 40 0 17-11 28-27 28-13 0-19-8-19-22V94Z" fill="url(#c)"/></svg>